# xmcd CD database file
#
# Track frame offsets:
#	150
#	19265
#	40495
#	60035
#
# Disc length: 1198 seconds
#
# Revision: 0
# Processed by: cddbd v1.5.2PL0 Copyright (c) Steve Scherf et al.
# Submitted via: CDex 1.51
#
DISCID=2804ac04
DTITLE=Mandalay - Flowers Bloom
DYEAR=1996
DGENRE=New Age
TTITLE0=Flowers Bloom
TTITLE1=Enough Love
TTITLE2=Sold
TTITLE3=Flowers Bloom - Foul Play Remix
EXTD=YEAR: 1996
EXTT0=
EXTT1=
EXTT2=
EXTT3=
PLAYORDER=
